<mxfile host="app.diagrams.net" agent="Mozilla/5.0 (Windows NT 10.0; Win64; x64) AppleWebKit/537.36 (KHTML, like Gecko) Chrome/122.0.6261.95 Safari/537.36" version="24.7.16">
  <diagram name="第 1 页" id="vn3YVLUs6SHhxP51CPgB">
    <mxGraphModel dx="1436" dy="779" grid="1" gridSize="10" guides="1" tooltips="1" connect="1" arrows="1" fold="1" page="1" pageScale="1" pageWidth="827" pageHeight="1169" math="0" shadow="0">
      <root>
        <mxCell id="0" />
        <mxCell id="1" parent="0" />
        <mxCell id="5B0pq8v1HmGOY-GkW8D6-3" style="edgeStyle=entityRelationEdgeStyle;rounded=0;orthogonalLoop=1;jettySize=auto;html=1;exitX=0;exitY=0;exitDx=0;exitDy=0;entryX=0.5;entryY=1;entryDx=0;entryDy=0;" edge="1" parent="1" source="5B0pq8v1HmGOY-GkW8D6-1" target="5B0pq8v1HmGOY-GkW8D6-2">
          <mxGeometry relative="1" as="geometry" />
        </mxCell>
        <mxCell id="5B0pq8v1HmGOY-GkW8D6-5" style="edgeStyle=entityRelationEdgeStyle;rounded=0;orthogonalLoop=1;jettySize=auto;html=1;exitX=0;exitY=0.5;exitDx=0;exitDy=0;entryX=1;entryY=0.5;entryDx=0;entryDy=0;" edge="1" parent="1" source="5B0pq8v1HmGOY-GkW8D6-1" target="5B0pq8v1HmGOY-GkW8D6-4">
          <mxGeometry relative="1" as="geometry" />
        </mxCell>
        <mxCell id="5B0pq8v1HmGOY-GkW8D6-9" style="edgeStyle=orthogonalEdgeStyle;rounded=0;orthogonalLoop=1;jettySize=auto;html=1;exitX=0;exitY=1;exitDx=0;exitDy=0;entryX=1;entryY=0.5;entryDx=0;entryDy=0;" edge="1" parent="1" source="5B0pq8v1HmGOY-GkW8D6-1" target="5B0pq8v1HmGOY-GkW8D6-6">
          <mxGeometry relative="1" as="geometry" />
        </mxCell>
        <mxCell id="5B0pq8v1HmGOY-GkW8D6-10" style="edgeStyle=orthogonalEdgeStyle;rounded=0;orthogonalLoop=1;jettySize=auto;html=1;exitX=0.5;exitY=0;exitDx=0;exitDy=0;entryX=0.5;entryY=1;entryDx=0;entryDy=0;" edge="1" parent="1" source="5B0pq8v1HmGOY-GkW8D6-1" target="5B0pq8v1HmGOY-GkW8D6-7">
          <mxGeometry relative="1" as="geometry" />
        </mxCell>
        <mxCell id="5B0pq8v1HmGOY-GkW8D6-1" value="集成方法" style="whiteSpace=wrap;html=1;align=center;" vertex="1" parent="1">
          <mxGeometry x="290" y="360" width="100" height="40" as="geometry" />
        </mxCell>
        <mxCell id="5B0pq8v1HmGOY-GkW8D6-2" value="&lt;span style=&quot;border-bottom: 1px dotted&quot;&gt;集成类型&lt;/span&gt;" style="ellipse;whiteSpace=wrap;html=1;align=center;" vertex="1" parent="1">
          <mxGeometry x="110" y="260" width="100" height="40" as="geometry" />
        </mxCell>
        <mxCell id="5B0pq8v1HmGOY-GkW8D6-4" value="&lt;span style=&quot;border-bottom: 1px dotted&quot;&gt;编码&lt;/span&gt;" style="ellipse;whiteSpace=wrap;html=1;align=center;" vertex="1" parent="1">
          <mxGeometry x="100" y="350" width="100" height="40" as="geometry" />
        </mxCell>
        <mxCell id="5B0pq8v1HmGOY-GkW8D6-6" value="名称" style="ellipse;whiteSpace=wrap;html=1;align=center;" vertex="1" parent="1">
          <mxGeometry x="110" y="410" width="100" height="40" as="geometry" />
        </mxCell>
        <mxCell id="5B0pq8v1HmGOY-GkW8D6-7" value="资源URI" style="ellipse;whiteSpace=wrap;html=1;align=center;" vertex="1" parent="1">
          <mxGeometry x="270" y="240" width="100" height="40" as="geometry" />
        </mxCell>
        <mxCell id="5B0pq8v1HmGOY-GkW8D6-8" value="集成分组" style="ellipse;whiteSpace=wrap;html=1;align=center;" vertex="1" parent="1">
          <mxGeometry x="440" y="230" width="100" height="40" as="geometry" />
        </mxCell>
        <mxCell id="5B0pq8v1HmGOY-GkW8D6-11" style="edgeStyle=orthogonalEdgeStyle;rounded=0;orthogonalLoop=1;jettySize=auto;html=1;exitX=1;exitY=0;exitDx=0;exitDy=0;entryX=0.37;entryY=1.05;entryDx=0;entryDy=0;entryPerimeter=0;" edge="1" parent="1" source="5B0pq8v1HmGOY-GkW8D6-1" target="5B0pq8v1HmGOY-GkW8D6-8">
          <mxGeometry relative="1" as="geometry" />
        </mxCell>
        <mxCell id="5B0pq8v1HmGOY-GkW8D6-12" value="入参配置" style="ellipse;whiteSpace=wrap;html=1;align=center;" vertex="1" parent="1">
          <mxGeometry x="460" y="350" width="100" height="40" as="geometry" />
        </mxCell>
        <mxCell id="5B0pq8v1HmGOY-GkW8D6-13" value="入参参数" style="ellipse;whiteSpace=wrap;html=1;align=center;" vertex="1" parent="1">
          <mxGeometry x="461" y="430" width="100" height="40" as="geometry" />
        </mxCell>
      </root>
    </mxGraphModel>
  </diagram>
</mxfile>
